<svg xmlns="http://www.w3.org/2000/svg" xmlns:xlink="http://www.w3.org/1999/xlink" width="129.62396240234375" height="19.35205078125" viewBox="0 0 129.62396240234375 19.35205078125" fill="none">
<g >
<path     fill="#273029"  d="M9.30399 18.3521Q5.24799 18.3521 3.12399 16.0961Q0.999988 13.8401 0.999988 9.6881Q0.999988 7.6241 1.64799 6.0041Q2.29599 4.3841 3.42399 3.2681Q4.55199 2.1521 6.11199 1.5761Q7.67199 1.0001 9.49599 1.0001Q10.552 1.0001 11.416 1.1561Q12.28 1.3121 12.928 1.5161Q13.576 1.7201 14.008 1.9361Q14.44 2.1521 14.632 2.2721L13.552 5.2961Q12.784 4.8881 11.764 4.6001Q10.744 4.3121 9.44799 4.3121Q8.58399 4.3121 7.75599 4.6001Q6.92799 4.8881 6.29199 5.5241Q5.65599 6.1601 5.27199 7.1681Q4.88799 8.1761 4.88799 9.6161Q4.88799 10.7681 5.13999 11.7641Q5.39199 12.7601 5.95599 13.4801Q6.51999 14.2001 7.43199 14.6201Q8.34399 15.0401 9.63999 15.0401Q10.456 15.0401 11.104 14.9441Q11.752 14.8481 12.256 14.7161Q12.76 14.5841 13.144 14.4161Q13.528 14.2481 13.84 14.1041L14.872 17.1041Q14.08 17.5841 12.64 17.9681Q11.2 18.3521 9.30399 18.3521ZM27.804 1.3841L31.548 1.3841L31.548 18.0161L27.804 18.0161L27.804 10.9601L21.516 10.9601L21.516 18.0161L17.772 18.0161L17.772 1.3841L21.516 1.3841L21.516 7.7441L27.804 7.7441L27.804 1.3841ZM35.888 1.3841L39.632 1.3841L39.632 18.0161L35.888 18.0161L35.888 1.3841ZM55.132 18.0161Q53.524 15.1601 51.652 12.3761Q49.78 9.5921 47.668 7.1201L47.668 18.0161L43.972 18.0161L43.972 1.3841L47.02 1.3841Q47.812 2.1761 48.772 3.3281Q49.732 4.4801 50.728 5.7881Q51.724 7.0961 52.708 8.5001Q53.692 9.9041 54.556 11.2001L54.556 1.3841L58.276 1.3841L58.276 18.0161L55.132 18.0161ZM73.752 18.0161Q73.488 17.1521 73.164 16.2401Q72.84 15.3281 72.528 14.4161L66.048 14.4161Q65.736 15.3281 65.412 16.2401Q65.088 17.1521 64.824 18.0161L60.936 18.0161Q61.872 15.3281 62.712 13.0481Q63.552 10.7681 64.356 8.7521Q65.16 6.7361 65.94 4.9241Q66.72 3.1121 67.56 1.3841L71.136 1.3841Q71.952 3.1121 72.744 4.9241Q73.536 6.7361 74.34 8.7521Q75.144 10.7681 75.984 13.0481Q76.824 15.3281 77.76 18.0161L73.752 18.0161ZM69.264 5.1521Q69.144 5.5121 68.904 6.1361Q68.664 6.7601 68.352 7.5761Q68.04 8.3921 67.668 9.3761Q67.296 10.3601 66.912 11.4401L71.64 11.4401Q71.256 10.3601 70.896 9.3761Q70.536 8.3921 70.212 7.5761Q69.888 6.7601 69.648 6.1361Q69.408 5.5121 69.264 5.1521ZM79.1 9.2321L86.06 9.2321L86.06 12.4721L79.1 12.4721L79.1 9.2321ZM101.416 1.3841L101.416 4.5761L96.4 4.5761L96.4 18.0161L92.656 18.0161L92.656 4.5761L87.64 4.5761L87.64 1.3841L101.416 1.3841ZM103.476 11.8001Q103.476 10.1201 103.992 8.8601Q104.508 7.6001 105.348 6.7601Q106.188 5.9201 107.28 5.4881Q108.372 5.0561 109.524 5.0561Q112.212 5.0561 113.772 6.7001Q115.332 8.3441 115.332 11.5361Q115.332 11.8481 115.308 12.2201Q115.284 12.5921 115.26 12.8801L107.148 12.8801Q107.268 13.9841 108.18 14.6321Q109.092 15.2801 110.628 15.2801Q111.612 15.2801 112.56 15.1001Q113.508 14.9201 114.108 14.6561L114.588 17.5601Q114.3 17.7041 113.82 17.8481Q113.34 17.9921 112.752 18.1001Q112.164 18.2081 111.492 18.2801Q110.82 18.3521 110.148 18.3521Q108.444 18.3521 107.184 17.8481Q105.924 17.3441 105.096 16.4681Q104.268 15.5921 103.872 14.3921Q103.476 13.1921 103.476 11.8001ZM111.876 10.4321Q111.852 9.9761 111.72 9.5441Q111.588 9.1121 111.312 8.7761Q111.036 8.4401 110.616 8.2241Q110.196 8.0081 109.572 8.0081Q108.972 8.0081 108.54 8.2121Q108.108 8.4161 107.82 8.7521Q107.532 9.0881 107.376 9.5321Q107.22 9.9761 107.148 10.4321L111.876 10.4321ZM123.416 15.5201Q123.944 15.5201 124.424 15.4961Q124.904 15.4721 125.192 15.4241L125.192 12.7121Q124.976 12.6641 124.544 12.6161Q124.112 12.5681 123.752 12.5681Q123.248 12.5681 122.804 12.6281Q122.36 12.6881 122.024 12.8561Q121.688 13.0241 121.496 13.3121Q121.304 13.6001 121.304 14.0321Q121.304 14.8721 121.868 15.1961Q122.432 15.5201 123.416 15.5201ZM123.128 5.0561Q124.712 5.0561 125.768 5.4161Q126.824 5.7761 127.46 6.4481Q128.096 7.1201 128.36 8.0801Q128.624 9.0401 128.624 10.2161L128.624 17.6561Q127.856 17.8241 126.488 18.0521Q125.12 18.2801 123.176 18.2801Q121.952 18.2801 120.956 18.0641Q119.96 17.8481 119.24 17.3561Q118.52 16.8641 118.136 16.0721Q117.752 15.2801 117.752 14.1281Q117.752 13.0241 118.196 12.2561Q118.64 11.4881 119.384 11.0321Q120.128 10.5761 121.088 10.3721Q122.048 10.1681 123.08 10.1681Q123.776 10.1681 124.316 10.2281Q124.856 10.2881 125.192 10.3841L125.192 10.0481Q125.192 9.1361 124.64 8.5841Q124.088 8.0321 122.72 8.0321Q121.808 8.0321 120.92 8.1641Q120.032 8.2961 119.384 8.5361L118.928 5.6561Q119.24 5.5601 119.708 5.4521Q120.176 5.3441 120.728 5.2601Q121.28 5.1761 121.892 5.1161Q122.504 5.0561 123.128 5.0561Z">
</path>
<path fill-rule="evenodd"  fill="rgba(0, 0, 0, 1)"  d="M-0.00001,9.6881c0,-1.50439 0.23984,-2.85618 0.71952,-4.05539c0.48351,-1.20878 1.15057,-2.23394 2.00116,-3.07549c0.85459,-0.84549 1.86957,-1.48523 3.04494,-1.91922c1.15177,-0.42527 2.39523,-0.6379 3.73038,-0.6379c0.76367,0 1.46291,0.0573 2.09771,0.17191c0.61747,0.11149 1.16233,0.24157 1.6346,0.39024c0.48253,0.15191 0.8915,0.31172 1.2269,0.47942c0.31633,0.15817 0.55193,0.28564 0.7068,0.38243l0.6824,0.4265l-1.7398,4.87142l-1.0218,-0.54281c-0.449,-0.23854 -0.97917,-0.44412 -1.5905,-0.61674c-0.5912,-0.16691 -1.27264,-0.25037 -2.04431,-0.25037c-0.46337,0 -0.91786,0.0775 -1.36348,0.23249c-0.40767,0.1418 -0.76947,0.37067 -1.08542,0.68661c-0.32317,0.32318 -0.58738,0.75414 -0.79261,1.29289c-0.21233,0.55736 -0.31849,1.2547 -0.31849,2.09201c0,0.685 0.07382,1.31923 0.22145,1.9027c0.13343,0.5274 0.34469,0.9756 0.63378,1.3446c0.27654,0.35307 0.64556,0.63587 1.10707,0.8484c0.47527,0.21887 1.07183,0.3283 1.7897,0.3283c0.49487,0 0.93401,-0.0284 1.31741,-0.0852c0.396,-0.05867 0.7444,-0.1274 1.0452,-0.2062c0.28553,-0.07473 0.5324,-0.15767 0.7406,-0.2488c0.24987,-0.10927 0.47577,-0.21053 0.6777,-0.3038l1.0047,-0.4637l1.6543,4.8089l-0.6896,0.418c-0.6096,0.36947 -1.4405,0.69447 -2.4927,0.975c-1.0444,0.27853 -2.24227,0.4178 -3.59361,0.4178c-2.99199,0 -5.29468,-0.85683 -6.90809,-2.5705c-1.59727,-1.69653 -2.39591,-4.06103 -2.39591,-7.0935zM32.548,19.0161h-5.744v-7.056h-4.288v7.056h-5.744v-18.632h5.744v6.36h4.288v-6.36h5.744zM26.804,10.9601h1v1v6.056h3.744v-16.632h-3.744v6.36h-6.288v-6.36h-3.744v16.632h3.744v-7.056zM40.632,19.0161h-5.744v-18.632h5.744zM48.668,9.94027v9.07583h-5.696v-18.632h4.4622l0.2929,0.29289c0.5494,0.54937 1.15377,1.21968 1.8131,2.01092c0.64933,0.77921 1.31047,1.61067 1.9834,2.49437c0.67193,0.88245 1.3397,1.79708 2.0033,2.74389c0.00987,0.01406 0.01957,0.0279 0.0291,0.04153v-7.5836h5.72v18.632h-4.7286l-0.2868,-0.5094c-1.059,-1.88093 -2.20517,-3.73847 -3.4385,-5.5726c-0.69307,-1.03073 -1.4111,-2.02868 -2.1541,-2.99383zM47.668,7.1201c0.33793,0.39555 0.67127,0.79708 1,1.20461c1.04087,1.29039 2.03553,2.64086 2.984,4.05139c1.248,1.856 2.408,3.736 3.48,5.64h3.144v-16.632h-3.72v1v8.816c-0.32093,-0.4814 -0.65427,-0.97395 -1,-1.47766c-0.2748,-0.40036 -0.55747,-0.80781 -0.848,-1.22234c-0.656,-0.936 -1.316,-1.84 -1.98,-2.712c-0.664,-0.872 -1.316,-1.692 -1.956,-2.46c-0.64,-0.768 -1.224,-1.416 -1.752,-1.944h-3.048v16.632h3.696v-9.33655zM71.8148,15.4161h-5.0537c-0.13393,0.38613 -0.26953,0.7724 -0.4068,1.1588c-0.211,0.59387 -0.40233,1.17167 -0.574,1.7334l-0.2162,0.7078h-6.0352l0.4627,-1.3288c0.626,-1.79773 1.22,-3.45937 1.782,-4.9849c0.56313,-1.5284 1.1143,-2.96865 1.6535,-4.32074c0.53933,-1.35237 1.0708,-2.63669 1.5944,-3.85295c0.526,-1.22205 1.07237,-2.41599 1.6391,-3.58181l0.2736,-0.5628h4.8355l0.2705,0.57299c0.54813,1.16071 1.08817,2.34955 1.6201,3.56651c0.53233,1.21787 1.06853,2.50389 1.6086,3.85806c0.53927,1.35236 1.0904,2.79261 1.6534,4.32074c0.56207,1.52553 1.1561,3.18717 1.7821,4.9849l0.4627,1.3288h-6.1552l-0.2163,-0.7078c-0.1716,-0.56167 -0.3629,-1.13947 -0.5739,-1.7334c-0.13727,-0.38633 -0.2729,-0.7726 -0.4069,-1.1588zM72.528,14.4161c0.208,0.608 0.42,1.216 0.636,1.824c0.216,0.608 0.412,1.2 0.588,1.776h4.008c-0.1178,-0.33833 -0.23443,-0.67167 -0.3499,-1c-0.4964,-1.41213 -0.97177,-2.7348 -1.4261,-3.968c-0.56,-1.52 -1.108,-2.952 -1.644,-4.296c-0.536,-1.344 -1.068,-2.62 -1.596,-3.828c-0.528,-1.208 -1.064,-2.388 -1.608,-3.54h-3.576c-0.56,1.152 -1.1,2.332 -1.62,3.54c-0.52,1.208 -1.048,2.484 -1.584,3.828c-0.536,1.344 -1.084,2.776 -1.644,4.296c-0.45433,1.2332 -0.92973,2.55587 -1.4262,3.968c-0.1154,0.3284 -0.232,0.66173 -0.3498,1h3.888c0.176,-0.576 0.372,-1.168 0.588,-1.776c0.216,-0.608 0.428,-1.216 0.636,-1.824zM97.4,5.5761v13.44h-5.744v-13.44h-5.016v-5.192h15.776v5.192zM97.4,4.5761h4.016v-3.192h-13.776v3.192h5.016v1v12.44h3.744v-13.44zM3.12399,16.0961c1.416,1.504 3.476,2.256 6.18,2.256c1.26401,0 2.37601,-0.128 3.33601,-0.384c0.96,-0.256 1.704,-0.544 2.232,-0.864l-0.7051,-2.0497l-0.3269,-0.9503c-0.208,0.096 -0.44,0.2 -0.696,0.312c-0.07127,0.03113 -0.1456,0.06137 -0.223,0.0907c-0.20087,0.076 -0.42253,0.14577 -0.665,0.2093c-0.336,0.088 -0.72,0.164 -1.152,0.228c-0.432,0.064 -0.92,0.096 -1.46401,0.096c-0.864,0 -1.6,-0.14 -2.208,-0.42c-0.608,-0.28 -1.1,-0.66 -1.476,-1.14c-0.376,-0.48 -0.648,-1.052 -0.816,-1.716c-0.168,-0.664 -0.252,-1.38 -0.252,-2.148c0,-0.96 0.128,-1.776 0.384,-2.448c0.256,-0.672 0.596,-1.22 1.02,-1.644c0.424,-0.424 0.912,-0.732 1.464,-0.924c0.552,-0.192 1.116,-0.288 1.692,-0.288c0.86401,0 1.63601,0.096 2.31601,0.288c0.30813,0.08701 0.59903,0.18223 0.8727,0.28566c0.3302,0.12482 0.6353,0.2616 0.9153,0.41034l0.3394,-0.95048l0.7406,-2.07352c-0.128,-0.08 -0.336,-0.192 -0.624,-0.336c-0.288,-0.144 -0.648,-0.284 -1.08,-0.42c-0.432,-0.136 -0.936,-0.256 -1.512,-0.36c-0.576,-0.104 -1.216,-0.156 -1.92001,-0.156c-1.216,0 -2.344,0.192 -3.384,0.576c-1.04,0.384 -1.936,0.948 -2.688,1.692c-0.752,0.744 -1.344,1.656 -1.776,2.736c-0.432,1.08 -0.648,2.308 -0.648,3.684c0,2.768 0.708,4.904 2.124,6.408zM35.888,1.3841v16.632h3.744v-16.632zM104.641,6.05299c0.65733,-0.65769 1.41433,-1.15594 2.271,-1.49477c0.846,-0.33475 1.71667,-0.50212 2.612,-0.50212c2.07867,0 3.73633,0.65189 4.973,1.95567c1.22333,1.28893 1.835,3.13038 1.835,5.52433c0,0.2294 -0.00867,0.47883 -0.026,0.7483c-0.01667,0.25427 -0.033,0.4805 -0.049,0.6787l-0.077,0.917h-1.187l0.702,4.2446l-0.66,0.3298c-0.24333,0.12173 -0.55267,0.23887 -0.928,0.3514c-0.35467,0.10653 -0.746,0.1991 -1.174,0.2777c-0.41667,0.07653 -0.86133,0.14013 -1.334,0.1908c-0.484,0.0518 -0.96767,0.0777 -1.451,0.0777c-1.26467,0 -2.37633,-0.19183 -3.335,-0.5755c-0.97667,-0.39047 -1.79133,-0.931 -2.444,-1.6216c-0.654,-0.69193 -1.13633,-1.50843 -1.447,-2.4495c-0.29733,-0.90173 -0.446,-1.8702 -0.446,-2.9054c0,-1.25122 0.197,-2.35755 0.591,-3.31898c0.39467,-0.96399 0.91933,-1.77337 1.574,-2.42813zM113.335,13.8801h-4.481c0.42867,0.26667 1.02,0.4 1.774,0.4c0.59333,0 1.175,-0.05413 1.745,-0.1624c0.37133,-0.07047 0.692,-0.14967 0.962,-0.2376zM107.472,13.8801c-0.17533,-0.29447 -0.28333,-0.6278 -0.324,-1h8.112c0.016,-0.192 0.032,-0.412 0.048,-0.66c0.016,-0.248 0.024,-0.476 0.024,-0.684c0,-2.128 -0.52,-3.74 -1.56,-4.836c-1.04,-1.096 -2.456,-1.644 -4.248,-1.644c-0.768,0 -1.516,0.144 -2.244,0.432c-0.728,0.288 -1.372,0.712 -1.932,1.272c-0.56,0.56 -1.012,1.26 -1.356,2.1c-0.344,0.84 -0.516,1.82 -0.516,2.94c0,0.928 0.132,1.792 0.396,2.592c0.264,0.8 0.672,1.492 1.224,2.076c0.552,0.584 1.248,1.044 2.088,1.38c0.84,0.336 1.828,0.504 2.964,0.504c0.448,0 0.896,-0.024 1.344,-0.072c0.448,-0.048 0.868,-0.108 1.26,-0.18c0.392,-0.072 0.748,-0.156 1.068,-0.252c0.32,-0.096 0.576,-0.192 0.768,-0.288l-0.313,-1.8919l-0.167,-1.0121c-0.268,0.118 -0.58833,0.22343 -0.961,0.3163c-0.18333,0.0456 -0.379,0.08817 -0.587,0.1277c-0.632,0.12 -1.276,0.18 -1.932,0.18c-1.024,0 -1.84,-0.216 -2.448,-0.648c-0.30067,-0.21353 -0.53667,-0.4642 -0.708,-0.752zM128.186,5.76071c0.53867,0.56895 0.918,1.25369 1.138,2.05424c0.2,0.72675 0.3,1.52713 0.3,2.40115v8.2449l-0.786,0.172c-0.52867,0.1156 -1.25733,0.25077 -2.186,0.4055c-0.966,0.16107 -2.12467,0.2416 -3.476,0.2416c-0.88733,0 -1.698,-0.07957 -2.432,-0.2387c-0.79133,-0.1716 -1.48067,-0.45817 -2.068,-0.8597c-0.62667,-0.428 -1.10667,-0.98577 -1.44,-1.6733c-0.32267,-0.6658 -0.484,-1.45923 -0.484,-2.3803c0,-0.91487 0.19267,-1.7057 0.578,-2.3725c0.38067,-0.6584 0.891,-1.18377 1.531,-1.5761c0.594,-0.36389 1.267,-0.62574 2.019,-0.78556c0.70867,-0.15056 1.442,-0.22584 2.2,-0.22584c0.24333,0 0.47433,0.00519 0.693,0.01558c-0.216,-0.10105 -0.567,-0.15158 -1.053,-0.15158c-0.55867,0 -1.10967,0.04038 -1.653,0.12113c-0.52333,0.07781 -0.96867,0.18469 -1.336,0.32062l-1.144,0.42377l-0.782,-4.94213l0.829,-0.25517c0.23067,-0.07103 0.51367,-0.14524 0.849,-0.22261c0.33667,-0.07769 0.70167,-0.14643 1.095,-0.20623c0.38533,-0.05867 0.79067,-0.10888 1.216,-0.15061c0.44067,-0.04318 0.88533,-0.06477 1.334,-0.06477c1.16667,0 2.15433,0.13783 2.963,0.41349c0.85933,0.29313 1.55767,0.72351 2.095,1.29112zM125.091,9.33344c0.06733,0.21623 0.101,0.45445 0.101,0.71466v0.336c-0.224,-0.064 -0.516,-0.116 -0.876,-0.156c-0.04067,-0.00453 -0.082,-0.0088 -0.124,-0.0128c-0.33,-0.03147 -0.70067,-0.0472 -1.112,-0.0472c-0.688,0 -1.352,0.068 -1.992,0.204c-0.64,0.136 -1.208,0.356 -1.704,0.66c-0.496,0.304 -0.892,0.712 -1.188,1.224c-0.296,0.512 -0.444,1.136 -0.444,1.872c0,0.768 0.128,1.416 0.384,1.944c0.256,0.528 0.624,0.956 1.104,1.284c0.48,0.328 1.052,0.564 1.716,0.708c0.664,0.144 1.404,0.216 2.22,0.216c1.296,0 2.4,-0.076 3.312,-0.228c0.912,-0.152 1.624,-0.284 2.136,-0.396v-7.44c0,-0.784 -0.088,-1.496 -0.264,-2.136c-0.176,-0.64 -0.476,-1.184 -0.9,-1.632c-0.424,-0.448 -0.988,-0.792 -1.692,-1.032c-0.704,-0.24 -1.584,-0.36 -2.64,-0.36c-0.416,0 -0.828,0.02 -1.236,0.06c-0.408,0.04 -0.796,0.088 -1.164,0.144c-0.368,0.056 -0.708,0.12 -1.02,0.192c-0.312,0.072 -0.572,0.14 -0.78,0.204l0.297,1.87587l0.159,1.00413c0.28733,-0.10655 0.61033,-0.19713 0.969,-0.27175c0.18,-0.03743 0.369,-0.07085 0.567,-0.10025c0.592,-0.088 1.192,-0.132 1.8,-0.132c0.912,0 1.552,0.184 1.92,0.552c0.21067,0.21051 0.361,0.46029 0.451,0.74934zM68.904,6.1361c0.16,-0.416 0.28,-0.744 0.36,-0.984c0.096,0.24 0.224,0.568 0.384,0.984c0.05187,0.13488 0.10663,0.27634 0.1643,0.42437c0.1204,0.3092 0.25363,0.64774 0.3997,1.01563c0.216,0.544 0.444,1.144 0.684,1.8c0.12647,0.34575 0.2552,0.70041 0.3862,1.064c0.11747,0.3262 0.23673,0.65953 0.3578,1h-4.728c0.12113,-0.3406 0.2413,-0.67393 0.3605,-1c0.13287,-0.36345 0.2647,-0.71812 0.3955,-1.064c0.248,-0.656 0.476,-1.256 0.684,-1.8c0.14033,-0.36708 0.2698,-0.70513 0.3884,-1.01415c0.05713,-0.14892 0.11167,-0.29087 0.1636,-0.42585zM69.282,7.94378l-0.6792,1.78754c-0.0878,0.23225 -0.1761,0.46851 -0.2649,0.70878h1.8811c-0.0884,-0.2442 -0.17577,-0.48434 -0.2621,-0.72042c-0.23687,-0.64745 -0.46163,-1.23896 -0.6743,-1.77455zM111.72,9.5441c0.088,0.288 0.14,0.584 0.156,0.888h-4.728c0.048,-0.304 0.124,-0.604 0.228,-0.9c0.012,-0.03376 0.02433,-0.06709 0.037,-0.1c0.10133,-0.25492 0.237,-0.48159 0.407,-0.68c0.192,-0.224 0.432,-0.404 0.72,-0.54c0.288,-0.136 0.632,-0.204 1.032,-0.204c0.416,0 0.764,0.072 1.044,0.216c0.28,0.144 0.512,0.328 0.696,0.552c0.16,0.19453 0.28367,0.41319 0.371,0.656c0.01333,0.03681 0.02567,0.07415 0.037,0.112zM110.556,9.4321c-0.00533,-0.0072 -0.011,-0.01429 -0.017,-0.02126c-0.096,-0.1174 -0.22267,-0.21655 -0.38,-0.29745c-0.13667,-0.07019 -0.33233,-0.10529 -0.587,-0.10529c-0.25067,0 -0.45233,0.03608 -0.605,0.10825c-0.15933,0.07517 -0.28867,0.17068 -0.388,0.28653c-0.008,0.0096 -0.016,0.01934 -0.024,0.02922zM87.06,13.4721h-8.96v-5.24h8.96zM80.1,9.2321h-1v3.24h6.96v-3.24zM124.424,15.4961c-0.32,0.016 -0.656,0.024 -1.008,0.024c-0.656,0 -1.172,-0.108 -1.548,-0.324c-0.376,-0.216 -0.564,-0.604 -0.564,-1.164c0,-0.288 0.064,-0.528 0.192,-0.72c0.128,-0.192 0.304,-0.344 0.528,-0.456c0.224,-0.112 0.484,-0.188 0.78,-0.228c0.296,-0.04 0.612,-0.06 0.948,-0.06c0.24,0 0.504,0.016 0.792,0.048c0.288,0.032 0.504,0.064 0.648,0.096v2.712c-0.192,0.032 -0.448,0.056 -0.768,0.072zM124.192,14.5055v-0.9187c-0.15733,-0.01247 -0.304,-0.0187 -0.44,-0.0187c-0.29133,0 -0.56267,0.017 -0.814,0.051c-0.186,0.02513 -0.34167,0.06893 -0.467,0.1314c-0.06533,0.03287 -0.113,0.07163 -0.143,0.1163c-0.016,0.02407 -0.024,0.07917 -0.024,0.1653c0,0.17413 0.02067,0.2731 0.062,0.2969c0.222,0.1274 0.572,0.1911 1.05,0.1911c0.26867,0 0.52733,-0.00487 0.776,-0.0146z">
</path>
<path fill-rule="evenodd"  fill="rgba(0, 0, 0, 0.2)"  d="M-0.00001,9.6881c0,-1.50439 0.23984,-2.85618 0.71952,-4.05539c0.48351,-1.20878 1.15057,-2.23394 2.00116,-3.07549c0.85459,-0.84549 1.86957,-1.48523 3.04494,-1.91922c1.15177,-0.42527 2.39523,-0.6379 3.73038,-0.6379c0.76367,0 1.46291,0.0573 2.09771,0.17191c0.61747,0.11149 1.16233,0.24157 1.6346,0.39024c0.48253,0.15191 0.8915,0.31172 1.2269,0.47942c0.31633,0.15817 0.55193,0.28564 0.7068,0.38243l0.6824,0.4265l-1.7398,4.87142l-1.0218,-0.54281c-0.449,-0.23854 -0.97917,-0.44412 -1.5905,-0.61674c-0.5912,-0.16691 -1.27264,-0.25037 -2.04431,-0.25037c-0.46337,0 -0.91786,0.0775 -1.36348,0.23249c-0.40767,0.1418 -0.76947,0.37067 -1.08542,0.68661c-0.32317,0.32318 -0.58738,0.75414 -0.79261,1.29289c-0.21233,0.55736 -0.31849,1.2547 -0.31849,2.09201c0,0.685 0.07382,1.31923 0.22145,1.9027c0.13343,0.5274 0.34469,0.9756 0.63378,1.3446c0.27654,0.35307 0.64556,0.63587 1.10707,0.8484c0.47527,0.21887 1.07183,0.3283 1.7897,0.3283c0.49487,0 0.93401,-0.0284 1.31741,-0.0852c0.396,-0.05867 0.7444,-0.1274 1.0452,-0.2062c0.28553,-0.07473 0.5324,-0.15767 0.7406,-0.2488c0.24987,-0.10927 0.47577,-0.21053 0.6777,-0.3038l1.0047,-0.4637l1.6543,4.8089l-0.6896,0.418c-0.6096,0.36947 -1.4405,0.69447 -2.4927,0.975c-1.0444,0.27853 -2.24227,0.4178 -3.59361,0.4178c-2.99199,0 -5.29468,-0.85683 -6.90809,-2.5705c-1.59727,-1.69653 -2.39591,-4.06103 -2.39591,-7.0935zM32.548,19.0161h-5.744v-7.056h-4.288v7.056h-5.744v-18.632h5.744v6.36h4.288v-6.36h5.744zM26.804,10.9601h1v1v6.056h3.744v-16.632h-3.744v6.36h-6.288v-6.36h-3.744v16.632h3.744v-7.056zM40.632,19.0161h-5.744v-18.632h5.744zM48.668,9.94027v9.07583h-5.696v-18.632h4.4622l0.2929,0.29289c0.5494,0.54937 1.15377,1.21968 1.8131,2.01092c0.64933,0.77921 1.31047,1.61067 1.9834,2.49437c0.67193,0.88245 1.3397,1.79708 2.0033,2.74389c0.00987,0.01406 0.01957,0.0279 0.0291,0.04153v-7.5836h5.72v18.632h-4.7286l-0.2868,-0.5094c-1.059,-1.88093 -2.20517,-3.73847 -3.4385,-5.5726c-0.69307,-1.03073 -1.4111,-2.02868 -2.1541,-2.99383zM47.668,7.1201c0.33793,0.39555 0.67127,0.79708 1,1.20461c1.04087,1.29039 2.03553,2.64086 2.984,4.05139c1.248,1.856 2.408,3.736 3.48,5.64h3.144v-16.632h-3.72v1v8.816c-0.32093,-0.4814 -0.65427,-0.97395 -1,-1.47766c-0.2748,-0.40036 -0.55747,-0.80781 -0.848,-1.22234c-0.656,-0.936 -1.316,-1.84 -1.98,-2.712c-0.664,-0.872 -1.316,-1.692 -1.956,-2.46c-0.64,-0.768 -1.224,-1.416 -1.752,-1.944h-3.048v16.632h3.696v-9.33655zM71.8148,15.4161h-5.0537c-0.13393,0.38613 -0.26953,0.7724 -0.4068,1.1588c-0.211,0.59387 -0.40233,1.17167 -0.574,1.7334l-0.2162,0.7078h-6.0352l0.4627,-1.3288c0.626,-1.79773 1.22,-3.45937 1.782,-4.9849c0.56313,-1.5284 1.1143,-2.96865 1.6535,-4.32074c0.53933,-1.35237 1.0708,-2.63669 1.5944,-3.85295c0.526,-1.22205 1.07237,-2.41599 1.6391,-3.58181l0.2736,-0.5628h4.8355l0.2705,0.57299c0.54813,1.16071 1.08817,2.34955 1.6201,3.56651c0.53233,1.21787 1.06853,2.50389 1.6086,3.85806c0.53927,1.35236 1.0904,2.79261 1.6534,4.32074c0.56207,1.52553 1.1561,3.18717 1.7821,4.9849l0.4627,1.3288h-6.1552l-0.2163,-0.7078c-0.1716,-0.56167 -0.3629,-1.13947 -0.5739,-1.7334c-0.13727,-0.38633 -0.2729,-0.7726 -0.4069,-1.1588zM72.528,14.4161c0.208,0.608 0.42,1.216 0.636,1.824c0.216,0.608 0.412,1.2 0.588,1.776h4.008c-0.1178,-0.33833 -0.23443,-0.67167 -0.3499,-1c-0.4964,-1.41213 -0.97177,-2.7348 -1.4261,-3.968c-0.56,-1.52 -1.108,-2.952 -1.644,-4.296c-0.536,-1.344 -1.068,-2.62 -1.596,-3.828c-0.528,-1.208 -1.064,-2.388 -1.608,-3.54h-3.576c-0.56,1.152 -1.1,2.332 -1.62,3.54c-0.52,1.208 -1.048,2.484 -1.584,3.828c-0.536,1.344 -1.084,2.776 -1.644,4.296c-0.45433,1.2332 -0.92973,2.55587 -1.4262,3.968c-0.1154,0.3284 -0.232,0.66173 -0.3498,1h3.888c0.176,-0.576 0.372,-1.168 0.588,-1.776c0.216,-0.608 0.428,-1.216 0.636,-1.824zM97.4,5.5761v13.44h-5.744v-13.44h-5.016v-5.192h15.776v5.192zM97.4,4.5761h4.016v-3.192h-13.776v3.192h5.016v1v12.44h3.744v-13.44zM3.12399,16.0961c1.416,1.504 3.476,2.256 6.18,2.256c1.26401,0 2.37601,-0.128 3.33601,-0.384c0.96,-0.256 1.704,-0.544 2.232,-0.864l-0.7051,-2.0497l-0.3269,-0.9503c-0.208,0.096 -0.44,0.2 -0.696,0.312c-0.07127,0.03113 -0.1456,0.06137 -0.223,0.0907c-0.20087,0.076 -0.42253,0.14577 -0.665,0.2093c-0.336,0.088 -0.72,0.164 -1.152,0.228c-0.432,0.064 -0.92,0.096 -1.46401,0.096c-0.864,0 -1.6,-0.14 -2.208,-0.42c-0.608,-0.28 -1.1,-0.66 -1.476,-1.14c-0.376,-0.48 -0.648,-1.052 -0.816,-1.716c-0.168,-0.664 -0.252,-1.38 -0.252,-2.148c0,-0.96 0.128,-1.776 0.384,-2.448c0.256,-0.672 0.596,-1.22 1.02,-1.644c0.424,-0.424 0.912,-0.732 1.464,-0.924c0.552,-0.192 1.116,-0.288 1.692,-0.288c0.86401,0 1.63601,0.096 2.31601,0.288c0.30813,0.08701 0.59903,0.18223 0.8727,0.28566c0.3302,0.12482 0.6353,0.2616 0.9153,0.41034l0.3394,-0.95048l0.7406,-2.07352c-0.128,-0.08 -0.336,-0.192 -0.624,-0.336c-0.288,-0.144 -0.648,-0.284 -1.08,-0.42c-0.432,-0.136 -0.936,-0.256 -1.512,-0.36c-0.576,-0.104 -1.216,-0.156 -1.92001,-0.156c-1.216,0 -2.344,0.192 -3.384,0.576c-1.04,0.384 -1.936,0.948 -2.688,1.692c-0.752,0.744 -1.344,1.656 -1.776,2.736c-0.432,1.08 -0.648,2.308 -0.648,3.684c0,2.768 0.708,4.904 2.124,6.408zM35.888,1.3841v16.632h3.744v-16.632zM104.641,6.05299c0.65733,-0.65769 1.41433,-1.15594 2.271,-1.49477c0.846,-0.33475 1.71667,-0.50212 2.612,-0.50212c2.07867,0 3.73633,0.65189 4.973,1.95567c1.22333,1.28893 1.835,3.13038 1.835,5.52433c0,0.2294 -0.00867,0.47883 -0.026,0.7483c-0.01667,0.25427 -0.033,0.4805 -0.049,0.6787l-0.077,0.917h-1.187l0.702,4.2446l-0.66,0.3298c-0.24333,0.12173 -0.55267,0.23887 -0.928,0.3514c-0.35467,0.10653 -0.746,0.1991 -1.174,0.2777c-0.41667,0.07653 -0.86133,0.14013 -1.334,0.1908c-0.484,0.0518 -0.96767,0.0777 -1.451,0.0777c-1.26467,0 -2.37633,-0.19183 -3.335,-0.5755c-0.97667,-0.39047 -1.79133,-0.931 -2.444,-1.6216c-0.654,-0.69193 -1.13633,-1.50843 -1.447,-2.4495c-0.29733,-0.90173 -0.446,-1.8702 -0.446,-2.9054c0,-1.25122 0.197,-2.35755 0.591,-3.31898c0.39467,-0.96399 0.91933,-1.77337 1.574,-2.42813zM113.335,13.8801h-4.481c0.42867,0.26667 1.02,0.4 1.774,0.4c0.59333,0 1.175,-0.05413 1.745,-0.1624c0.37133,-0.07047 0.692,-0.14967 0.962,-0.2376zM107.472,13.8801c-0.17533,-0.29447 -0.28333,-0.6278 -0.324,-1h8.112c0.016,-0.192 0.032,-0.412 0.048,-0.66c0.016,-0.248 0.024,-0.476 0.024,-0.684c0,-2.128 -0.52,-3.74 -1.56,-4.836c-1.04,-1.096 -2.456,-1.644 -4.248,-1.644c-0.768,0 -1.516,0.144 -2.244,0.432c-0.728,0.288 -1.372,0.712 -1.932,1.272c-0.56,0.56 -1.012,1.26 -1.356,2.1c-0.344,0.84 -0.516,1.82 -0.516,2.94c0,0.928 0.132,1.792 0.396,2.592c0.264,0.8 0.672,1.492 1.224,2.076c0.552,0.584 1.248,1.044 2.088,1.38c0.84,0.336 1.828,0.504 2.964,0.504c0.448,0 0.896,-0.024 1.344,-0.072c0.448,-0.048 0.868,-0.108 1.26,-0.18c0.392,-0.072 0.748,-0.156 1.068,-0.252c0.32,-0.096 0.576,-0.192 0.768,-0.288l-0.313,-1.8919l-0.167,-1.0121c-0.268,0.118 -0.58833,0.22343 -0.961,0.3163c-0.18333,0.0456 -0.379,0.08817 -0.587,0.1277c-0.632,0.12 -1.276,0.18 -1.932,0.18c-1.024,0 -1.84,-0.216 -2.448,-0.648c-0.30067,-0.21353 -0.53667,-0.4642 -0.708,-0.752zM128.186,5.76071c0.53867,0.56895 0.918,1.25369 1.138,2.05424c0.2,0.72675 0.3,1.52713 0.3,2.40115v8.2449l-0.786,0.172c-0.52867,0.1156 -1.25733,0.25077 -2.186,0.4055c-0.966,0.16107 -2.12467,0.2416 -3.476,0.2416c-0.88733,0 -1.698,-0.07957 -2.432,-0.2387c-0.79133,-0.1716 -1.48067,-0.45817 -2.068,-0.8597c-0.62667,-0.428 -1.10667,-0.98577 -1.44,-1.6733c-0.32267,-0.6658 -0.484,-1.45923 -0.484,-2.3803c0,-0.91487 0.19267,-1.7057 0.578,-2.3725c0.38067,-0.6584 0.891,-1.18377 1.531,-1.5761c0.594,-0.36389 1.267,-0.62574 2.019,-0.78556c0.70867,-0.15056 1.442,-0.22584 2.2,-0.22584c0.24333,0 0.47433,0.00519 0.693,0.01558c-0.216,-0.10105 -0.567,-0.15158 -1.053,-0.15158c-0.55867,0 -1.10967,0.04038 -1.653,0.12113c-0.52333,0.07781 -0.96867,0.18469 -1.336,0.32062l-1.144,0.42377l-0.782,-4.94213l0.829,-0.25517c0.23067,-0.07103 0.51367,-0.14524 0.849,-0.22261c0.33667,-0.07769 0.70167,-0.14643 1.095,-0.20623c0.38533,-0.05867 0.79067,-0.10888 1.216,-0.15061c0.44067,-0.04318 0.88533,-0.06477 1.334,-0.06477c1.16667,0 2.15433,0.13783 2.963,0.41349c0.85933,0.29313 1.55767,0.72351 2.095,1.29112zM125.091,9.33344c0.06733,0.21623 0.101,0.45445 0.101,0.71466v0.336c-0.224,-0.064 -0.516,-0.116 -0.876,-0.156c-0.04067,-0.00453 -0.082,-0.0088 -0.124,-0.0128c-0.33,-0.03147 -0.70067,-0.0472 -1.112,-0.0472c-0.688,0 -1.352,0.068 -1.992,0.204c-0.64,0.136 -1.208,0.356 -1.704,0.66c-0.496,0.304 -0.892,0.712 -1.188,1.224c-0.296,0.512 -0.444,1.136 -0.444,1.872c0,0.768 0.128,1.416 0.384,1.944c0.256,0.528 0.624,0.956 1.104,1.284c0.48,0.328 1.052,0.564 1.716,0.708c0.664,0.144 1.404,0.216 2.22,0.216c1.296,0 2.4,-0.076 3.312,-0.228c0.912,-0.152 1.624,-0.284 2.136,-0.396v-7.44c0,-0.784 -0.088,-1.496 -0.264,-2.136c-0.176,-0.64 -0.476,-1.184 -0.9,-1.632c-0.424,-0.448 -0.988,-0.792 -1.692,-1.032c-0.704,-0.24 -1.584,-0.36 -2.64,-0.36c-0.416,0 -0.828,0.02 -1.236,0.06c-0.408,0.04 -0.796,0.088 -1.164,0.144c-0.368,0.056 -0.708,0.12 -1.02,0.192c-0.312,0.072 -0.572,0.14 -0.78,0.204l0.297,1.87587l0.159,1.00413c0.28733,-0.10655 0.61033,-0.19713 0.969,-0.27175c0.18,-0.03743 0.369,-0.07085 0.567,-0.10025c0.592,-0.088 1.192,-0.132 1.8,-0.132c0.912,0 1.552,0.184 1.92,0.552c0.21067,0.21051 0.361,0.46029 0.451,0.74934zM68.904,6.1361c0.16,-0.416 0.28,-0.744 0.36,-0.984c0.096,0.24 0.224,0.568 0.384,0.984c0.05187,0.13488 0.10663,0.27634 0.1643,0.42437c0.1204,0.3092 0.25363,0.64774 0.3997,1.01563c0.216,0.544 0.444,1.144 0.684,1.8c0.12647,0.34575 0.2552,0.70041 0.3862,1.064c0.11747,0.3262 0.23673,0.65953 0.3578,1h-4.728c0.12113,-0.3406 0.2413,-0.67393 0.3605,-1c0.13287,-0.36345 0.2647,-0.71812 0.3955,-1.064c0.248,-0.656 0.476,-1.256 0.684,-1.8c0.14033,-0.36708 0.2698,-0.70513 0.3884,-1.01415c0.05713,-0.14892 0.11167,-0.29087 0.1636,-0.42585zM69.282,7.94378l-0.6792,1.78754c-0.0878,0.23225 -0.1761,0.46851 -0.2649,0.70878h1.8811c-0.0884,-0.2442 -0.17577,-0.48434 -0.2621,-0.72042c-0.23687,-0.64745 -0.46163,-1.23896 -0.6743,-1.77455zM111.72,9.5441c0.088,0.288 0.14,0.584 0.156,0.888h-4.728c0.048,-0.304 0.124,-0.604 0.228,-0.9c0.012,-0.03376 0.02433,-0.06709 0.037,-0.1c0.10133,-0.25492 0.237,-0.48159 0.407,-0.68c0.192,-0.224 0.432,-0.404 0.72,-0.54c0.288,-0.136 0.632,-0.204 1.032,-0.204c0.416,0 0.764,0.072 1.044,0.216c0.28,0.144 0.512,0.328 0.696,0.552c0.16,0.19453 0.28367,0.41319 0.371,0.656c0.01333,0.03681 0.02567,0.07415 0.037,0.112zM110.556,9.4321c-0.00533,-0.0072 -0.011,-0.01429 -0.017,-0.02126c-0.096,-0.1174 -0.22267,-0.21655 -0.38,-0.29745c-0.13667,-0.07019 -0.33233,-0.10529 -0.587,-0.10529c-0.25067,0 -0.45233,0.03608 -0.605,0.10825c-0.15933,0.07517 -0.28867,0.17068 -0.388,0.28653c-0.008,0.0096 -0.016,0.01934 -0.024,0.02922zM87.06,13.4721h-8.96v-5.24h8.96zM80.1,9.2321h-1v3.24h6.96v-3.24zM124.424,15.4961c-0.32,0.016 -0.656,0.024 -1.008,0.024c-0.656,0 -1.172,-0.108 -1.548,-0.324c-0.376,-0.216 -0.564,-0.604 -0.564,-1.164c0,-0.288 0.064,-0.528 0.192,-0.72c0.128,-0.192 0.304,-0.344 0.528,-0.456c0.224,-0.112 0.484,-0.188 0.78,-0.228c0.296,-0.04 0.612,-0.06 0.948,-0.06c0.24,0 0.504,0.016 0.792,0.048c0.288,0.032 0.504,0.064 0.648,0.096v2.712c-0.192,0.032 -0.448,0.056 -0.768,0.072zM124.192,14.5055v-0.9187c-0.15733,-0.01247 -0.304,-0.0187 -0.44,-0.0187c-0.29133,0 -0.56267,0.017 -0.814,0.051c-0.186,0.02513 -0.34167,0.06893 -0.467,0.1314c-0.06533,0.03287 -0.113,0.07163 -0.143,0.1163c-0.016,0.02407 -0.024,0.07917 -0.024,0.1653c0,0.17413 0.02067,0.2731 0.062,0.2969c0.222,0.1274 0.572,0.1911 1.05,0.1911c0.26867,0 0.52733,-0.00487 0.776,-0.0146z">
</path>
</g>
</svg>
